<svg xmlns="http://www.w3.org/2000/svg" width="26" height="26" viewBox="0 0 26 26">
  <g id="Group_19" data-name="Group 19" transform="translate(-461 -1006)">
    <rect id="Rectangle_39" data-name="Rectangle 39" width="26" height="26" transform="translate(461 1006)" fill="none"/>
    <path id="Icon_awesome-instagram" data-name="Icon awesome-instagram" d="M13,8.57a6.665,6.665,0,1,0,6.665,6.665A6.654,6.654,0,0,0,13,8.57Zm0,11a4.333,4.333,0,1,1,4.333-4.333A4.341,4.341,0,0,1,13,19.568ZM21.49,8.3a1.555,1.555,0,1,1-1.555-1.555A1.551,1.551,0,0,1,21.49,8.3ZM25.9,9.875a7.693,7.693,0,0,0-2.1-5.447,7.743,7.743,0,0,0-5.447-2.1c-2.146-.122-8.579-.122-10.725,0A7.732,7.732,0,0,0,2.186,4.423,7.718,7.718,0,0,0,.086,9.87c-.122,2.146-.122,8.579,0,10.725a7.693,7.693,0,0,0,2.1,5.447,7.753,7.753,0,0,0,5.447,2.1c2.146.122,8.579.122,10.725,0a7.693,7.693,0,0,0,5.447-2.1,7.743,7.743,0,0,0,2.1-5.447c.122-2.146.122-8.573,0-10.719ZM23.131,22.9a4.387,4.387,0,0,1-2.471,2.471c-1.711.679-5.771.522-7.662.522s-5.957.151-7.662-.522A4.387,4.387,0,0,1,2.864,22.9c-.679-1.711-.522-5.771-.522-7.662s-.151-5.957.522-7.662A4.387,4.387,0,0,1,5.335,5.1C7.047,4.423,11.107,4.58,13,4.58s5.957-.151,7.662.522a4.387,4.387,0,0,1,2.471,2.471c.679,1.711.522,5.771.522,7.662S23.81,21.192,23.131,22.9Z" transform="translate(461.005 1003.762)" fill="#fff"/>
  </g>
</svg>
