<svg xmlns="http://www.w3.org/2000/svg" width="189.298" height="106.864" viewBox="0 0 189.298 106.864">
  <g id="logo" transform="translate(-2.2 -1.8)">
    <path id="Path_4355" data-name="Path 4355" d="M214.983,30.323l-9.624-9.667,8.84-8.84L204.183,1.8l-4.442,4.442-4.4-4.442L185.327,11.816l8.84,8.84L184.5,30.323ZM199.741,15.082l-3.222-3.222,3.222-3.222,3.222,3.222ZM204.183,4.2l7.664,7.664-7.664,7.664L200.961,16.3l4.4-4.4-4.4-4.4Zm-16.5,7.664L195.343,4.2l3.222,3.222-4.4,4.4,4.4,4.442-3.222,3.222Zm7.664,10.016,4.4-4.4,11.192,11.192H188.55l6.793-6.793Z" transform="translate(-102.914)"/>
    <g id="Group_74" data-name="Group 74" transform="translate(45.66 100.477)">
      <path id="Path_4356" data-name="Path 4356" d="M104.482,228.9c1.437,0,2.352.523,2.352,1.7a1.377,1.377,0,0,1-.914,1.306,1.5,1.5,0,0,1,1.045,1.394c0,1.176-.827,1.785-2.308,1.785H102V228.9Zm-1.306,1.089v1.437h1.263c.61,0,1.089-.131,1.089-.74,0-.566-.479-.7-1.089-.7Zm0,2.526v1.481h1.393c.7,0,1.089-.174,1.089-.74s-.435-.74-1.089-.74Z" transform="translate(-102 -228.682)"/>
      <path id="Path_4357" data-name="Path 4357" d="M118.718,233.206l-.174,1.132a1.8,1.8,0,0,0-.7-.131.881.881,0,0,0-.914.958v2.352H115.8V233.25h1.132v.479a1.38,1.38,0,0,1,1.219-.566A.85.85,0,0,1,118.718,233.206Z" transform="translate(-109.791 -231.073)"/>
      <path id="Path_4358" data-name="Path 4358" d="M128.185,237.342h-1.132v-.479a1.519,1.519,0,0,1-1.263.566,2.135,2.135,0,0,1-2.09-2.264,2.109,2.109,0,0,1,2.09-2.264,1.519,1.519,0,0,1,1.263.566v-.479h1.132Zm-3.31-2.134a1.092,1.092,0,1,0,2.177,0,1.076,1.076,0,0,0-1.089-1.176A1.1,1.1,0,0,0,124.876,235.208Z" transform="translate(-114.25 -230.94)"/>
      <path id="Path_4359" data-name="Path 4359" d="M140.163,233.771l-.827.7a1.226,1.226,0,0,0-.914-.435,1.179,1.179,0,0,0,0,2.352,1.157,1.157,0,0,0,.914-.435l.827.7a2.049,2.049,0,0,1-1.7.784,2.264,2.264,0,0,1,0-4.529A2.4,2.4,0,0,1,140.163,233.771Z" transform="translate(-121.307 -230.94)"/>
      <path id="Path_4360" data-name="Path 4360" d="M148.432,231.126a1.374,1.374,0,0,1,1.219-.566,1.6,1.6,0,0,1,1.655,1.655v2.743h-1.132v-2.352c0-.61-.3-.958-.827-.958a.88.88,0,0,0-.915.958v2.352H147.3V228.6h1.132Z" transform="translate(-127.573 -228.513)"/>
      <path id="Path_4361" data-name="Path 4361" d="M163.316,235.264a2.233,2.233,0,0,1-2.308,2.264,2.208,2.208,0,0,1-2.308-2.264A2.233,2.233,0,0,1,161.008,233,2.259,2.259,0,0,1,163.316,235.264Zm-3.44,0a1.133,1.133,0,1,0,1.132-1.176A1.11,1.11,0,0,0,159.876,235.264Z" transform="translate(-134.009 -230.997)"/>
      <path id="Path_4362" data-name="Path 4362" d="M173.971,232.764H172.4v1.568c0,.523.261.74.653.74a1.678,1.678,0,0,0,.784-.261l.435.914a2.448,2.448,0,0,1-1.437.435,1.494,1.494,0,0,1-1.611-1.7v-1.655H170.4v-1.045h.827V230.5h1.132v1.263h1.568v1Z" transform="translate(-140.614 -229.586)"/>
      <path id="Path_4363" data-name="Path 4363" d="M190.611,232.658h-3.092v2.526H186.3V229h4.529v1.132h-3.31v1.393h3.092Z" transform="translate(-149.59 -228.739)"/>
      <path id="Path_4364" data-name="Path 4364" d="M202.985,237.342h-1.132v-.479a1.518,1.518,0,0,1-1.263.566,2.135,2.135,0,0,1-2.09-2.264,2.109,2.109,0,0,1,2.09-2.264,1.519,1.519,0,0,1,1.263.566v-.479h1.132Zm-3.31-2.134a1.092,1.092,0,1,0,2.177,0,1.076,1.076,0,0,0-1.089-1.176A1.1,1.1,0,0,0,199.676,235.208Z" transform="translate(-156.477 -230.94)"/>
      <path id="Path_4365" data-name="Path 4365" d="M218.58,234.809v2.743h-1.132V235.2c0-.61-.3-.958-.827-.958a.88.88,0,0,0-.915.958v2.352h-1.132V235.2c0-.61-.3-.958-.827-.958a.88.88,0,0,0-.914.958v2.352H211.7v-4.268h1.132v.523a1.488,1.488,0,0,1,1.263-.61,1.523,1.523,0,0,1,1.393.74,1.649,1.649,0,0,1,1.437-.74A1.52,1.52,0,0,1,218.58,234.809Z" transform="translate(-163.929 -231.107)"/>
      <path id="Path_4366" data-name="Path 4366" d="M231.281,229.14a.74.74,0,1,1-.74-.74A.709.709,0,0,1,231.281,229.14Zm-.131,5.661h-1.132v-4.268h1.132Z" transform="translate(-174.147 -228.4)"/>
      <path id="Path_4367" data-name="Path 4367" d="M236.832,234.858H235.7V228.5h1.132Z" transform="translate(-177.478 -228.456)"/>
      <path id="Path_4368" data-name="Path 4368" d="M241.511,239.353h-1.263l1.481-2.7L239.9,233.3h1.306l1.176,2.221,1.132-2.221h1.263Z" transform="translate(-179.849 -231.166)"/>
      <path id="Path_4369" data-name="Path 4369" d="M264.693,235.084h-1.219v-4.66l-1.524,4.093h-1.306l-1.524-4.05v4.616H257.9V228.9h1.785l1.611,4.181,1.611-4.181h1.829v6.184Z" transform="translate(-190.01 -228.682)"/>
      <path id="Path_4370" data-name="Path 4370" d="M280.168,235.321a1.081,1.081,0,0,1-.044.392h-3.048a1.033,1.033,0,0,0,1.089.871,1.673,1.673,0,0,0,1.089-.392l.7.74a2.615,2.615,0,0,1-1.829.653,2.243,2.243,0,0,1-.044-4.485A2.048,2.048,0,0,1,280.168,235.321Zm-3.048-.392h1.916a.907.907,0,0,0-.914-.871A.961.961,0,0,0,277.119,234.929Z" transform="translate(-200.172 -231.053)"/>
      <path id="Path_4371" data-name="Path 4371" d="M294.88,234.809v2.743h-1.132V235.2c0-.61-.3-.958-.827-.958a.88.88,0,0,0-.914.958v2.352h-1.132V235.2c0-.61-.3-.958-.827-.958a.88.88,0,0,0-.914.958v2.352H288v-4.268h1.132v.523a1.488,1.488,0,0,1,1.263-.61,1.523,1.523,0,0,1,1.394.74,1.649,1.649,0,0,1,1.437-.74A1.5,1.5,0,0,1,294.88,234.809Z" transform="translate(-207.003 -231.107)"/>
      <path id="Path_4372" data-name="Path 4372" d="M310.985,232.781a2.109,2.109,0,0,1-2.09,2.264,1.462,1.462,0,0,1-1.263-.566v.479H306.5V228.6h1.132v2.526a1.519,1.519,0,0,1,1.263-.566A2.1,2.1,0,0,1,310.985,232.781Zm-3.353,0a1.092,1.092,0,1,0,2.177,0,1.092,1.092,0,1,0-2.177,0Z" transform="translate(-217.447 -228.513)"/>
      <path id="Path_4373" data-name="Path 4373" d="M322.668,235.321a1.081,1.081,0,0,1-.044.392h-3.048a1.033,1.033,0,0,0,1.089.871,1.672,1.672,0,0,0,1.089-.392l.7.74a2.615,2.615,0,0,1-1.829.653,2.243,2.243,0,0,1-.044-4.485A2.072,2.072,0,0,1,322.668,235.321Zm-3.048-.392h1.916a.907.907,0,0,0-.914-.871A.934.934,0,0,0,319.619,234.929Z" transform="translate(-224.165 -231.053)"/>
      <path id="Path_4374" data-name="Path 4374" d="M333.318,233.206l-.174,1.132a1.8,1.8,0,0,0-.7-.131.881.881,0,0,0-.914.958v2.352H330.4V233.25h1.132v.479a1.38,1.38,0,0,1,1.219-.566A.828.828,0,0,1,333.318,233.206Z" transform="translate(-230.939 -231.073)"/>
    </g>
    <g id="Group_75" data-name="Group 75" transform="translate(12.869 41.558)">
      <path id="Path_4375" data-name="Path 4375" d="M34.8,94c4.616,0,7.534,1.7,7.534,5.487a4.443,4.443,0,0,1-2.874,4.224,4.747,4.747,0,0,1,3.31,4.442c0,3.789-2.7,5.661-7.447,5.661H26.7V94Zm-4.181,3.484V102.1h4.05c1.96,0,3.484-.392,3.484-2.352,0-1.873-1.568-2.308-3.527-2.308H30.619Zm0,8.1v4.747h4.442c2.177,0,3.571-.523,3.571-2.4s-1.393-2.352-3.571-2.352Z" transform="translate(-26.7 -93.608)"/>
      <path id="Path_4376" data-name="Path 4376" d="M91.8,94c4.747,0,7.272,2.221,7.272,6.009,0,3.266-2.264,5.487-6.053,5.835l6.1,7.926H94.33l-5.792-7.882H87.363v7.882H83.4V94Zm-4.442,3.614v4.834h4.355c2.134,0,3.266-.784,3.266-2.482,0-1.655-1.176-2.4-3.266-2.4H87.363Z" transform="translate(-58.709 -93.608)"/>
      <path id="Path_4377" data-name="Path 4377" d="M154.893,113.814h-4.224l-1.742-4.616h-8.448l-1.742,4.616H134.6L142.351,94h4.834Zm-13.064-8.274h5.748L144.7,97.876Z" transform="translate(-87.613 -93.608)"/>
      <path id="Path_4378" data-name="Path 4378" d="M213.5,97.542l-3.4,2.09a6,6,0,0,0-5.139-2.743,6.492,6.492,0,0,0,0,12.977,6.205,6.205,0,0,0,5.182-2.7l3.222,2.308a9.863,9.863,0,0,1-8.361,4.181c-6.1,0-10.408-4.311-10.408-10.277S198.911,93.1,205.008,93.1A9.678,9.678,0,0,1,213.5,97.542Z" transform="translate(-121.485 -93.1)"/>
      <path id="Path_4379" data-name="Path 4379" d="M261.563,101.969H271.1V94h3.963v19.814H271.1v-8.143h-9.537v8.143H257.6V94h3.963Z" transform="translate(-157.05 -93.608)"/>
      <path id="Path_4380" data-name="Path 4380" d="M338.515,103.377A10.409,10.409,0,1,1,328.108,93.1,9.985,9.985,0,0,1,338.515,103.377Zm-16.678,0a6.143,6.143,0,0,0,6.271,6.488c3.658,0,6.271-2.613,6.271-6.488a6.274,6.274,0,1,0-12.542,0Z" transform="translate(-190.979 -93.1)"/>
      <path id="Path_4381" data-name="Path 4381" d="M396.243,97.7H390.1v16.112H386.14V97.7H380V94h16.243Z" transform="translate(-226.149 -93.608)"/>
    </g>
    <g id="Group_76" data-name="Group 76" transform="translate(2.2 69.777)">
      <path id="Path_4382" data-name="Path 4382" d="M16.527,163.313a10.689,10.689,0,0,0-5.618-1.7c-2.221,0-3.789.871-3.789,2.4,0,1.437,1.7,1.916,4.093,2.308l1.132.174c3.527.566,6.314,2.09,6.314,5.53,0,4.355-3.832,6.445-8.1,6.445A13.912,13.912,0,0,1,2.2,175.9l2.047-3.179a10.525,10.525,0,0,0,6.314,2.134c2.177,0,3.876-.871,3.876-2.4,0-1.393-1.437-1.873-4.224-2.308l-1.263-.218c-3.484-.566-6.053-2.09-6.053-5.661,0-4.137,3.7-6.271,7.882-6.271a13.935,13.935,0,0,1,7.577,2.09Z" transform="translate(-2.2 -157.956)"/>
      <path id="Path_4383" data-name="Path 4383" d="M76.37,170.588c0,5.487-3.484,8.274-8.535,8.274s-8.535-2.787-8.535-8.274V158.7h3.963v11.714c0,3.266,1.829,4.7,4.572,4.7s4.572-1.437,4.572-4.7V158.7H76.37Z" transform="translate(-34.435 -158.352)"/>
      <path id="Path_4384" data-name="Path 4384" d="M128.5,158.644c4.747,0,7.272,2.221,7.272,6.009,0,3.266-2.264,5.487-6.053,5.835l6.1,7.926h-4.79l-5.792-7.882h-1.176v7.882H120.1V158.6h8.4Zm-4.442,3.658v4.834h4.355c2.134,0,3.266-.784,3.266-2.482,0-1.655-1.176-2.4-3.266-2.4h-4.355Z" transform="translate(-68.758 -158.295)"/>
      <path id="Path_4385" data-name="Path 4385" d="M189.991,170.5h-9.929v8.013H176.1V158.7h14.545v3.658H180.063v4.529h9.929Z" transform="translate(-100.372 -158.352)"/>
      <path id="Path_4386" data-name="Path 4386" d="M243.293,178.514h-4.224l-1.742-4.616h-8.448l-1.742,4.616H223l7.708-19.814h4.834Zm-13.064-8.23h5.748l-2.874-7.664Z" transform="translate(-126.848 -158.352)"/>
      <path id="Path_4387" data-name="Path 4387" d="M301.9,162.342l-3.4,2.09a6,6,0,0,0-5.139-2.743,6.492,6.492,0,0,0,0,12.977,6.205,6.205,0,0,0,5.182-2.7l3.222,2.308a9.863,9.863,0,0,1-8.361,4.181c-6.1,0-10.408-4.311-10.408-10.277s4.311-10.277,10.408-10.277A9.584,9.584,0,0,1,301.9,162.342Z" transform="translate(-160.72 -157.9)"/>
      <path id="Path_4388" data-name="Path 4388" d="M360.906,178.514H346.1V158.7h14.675v3.614H350.019v4.4h10.233v3.614H350.019V174.9h10.843v3.614Z" transform="translate(-196.342 -158.352)"/>
      <path id="Path_4389" data-name="Path 4389" d="M413.427,163.313a10.689,10.689,0,0,0-5.618-1.7c-2.221,0-3.789.871-3.789,2.4,0,1.437,1.7,1.916,4.093,2.308l1.132.174c3.527.566,6.314,2.09,6.314,5.53,0,4.355-3.832,6.445-8.1,6.445A13.912,13.912,0,0,1,399.1,175.9l2.047-3.179a10.525,10.525,0,0,0,6.314,2.134c2.177,0,3.876-.871,3.876-2.4,0-1.393-1.437-1.873-4.224-2.308l-1.263-.218c-3.484-.566-6.053-2.09-6.053-5.661,0-4.137,3.7-6.271,7.882-6.271a13.935,13.935,0,0,1,7.577,2.09Z" transform="translate(-226.262 -157.956)"/>
    </g>
  </g>
</svg>
